# xmcd
#
# Track frame offsets: 
#        150
#        11115
#        23392
#        34912
#        46527
#        57400
#        69112
#        79857
#        90002
#        107387
#        123792
#        134915
#        147720
#        159550
#        170912
#        186107
#        196250
#        209137
#        221917
#        232515
#
# Disc length: 3235 seconds
#
# Revision: 2
# Processed by: cddbd v1.5.2PL0 Copyright (c) Steve Scherf et al.
# Submitted via: ExactAudioCopy v1.0b3
#
DISCID=110ca114
DTITLE=Various Artist - Country Love - The best country love songs
DYEAR=1997
DGENRE=Country
TTITLE0=Carl Belew - Am I That Easy to Forget
TTITLE1=Red Simpson - Roll, Truck, Roll
TTITLE2=George Jones - Window Up Above
TTITLE3=Roger Miller - Little Green Apples
TTITLE4=Patsy Cline - Stop The World (And Let Me Off)
TTITLE5=Johnny Cash - You're The Nearest Thing To Heaven
TTITLE6=Waylon Jennings - Dream Baby
TTITLE7=Floyd Tillman - Slippin' Around
TTITLE8=Bobby Bare - Sylvia's Mother
TTITLE9=Roger Miller - Honey
TTITLE10=Jeannie C. Riley - Box Of Memories
TTITLE11=George Jones - I Love You Because
TTITLE12=Waylon Jennings - Crying
TTITLE13=Johnny Horton - All For The Love Of A Girl
TTITLE14=Bobby Bare - For The Good Times
TTITLE15=Dave Dudley - Oh, Lonesome Me
TTITLE16=Billie Jo Spears - He's On The Run Again
TTITLE17=Jerry Wallace - Shutters And Boards
TTITLE18=Waylon Jennings - Burning Memories
TTITLE19=Bobby Bare - Help Me Make It Through The Night
EXTD=YEAR: 1997 ID3G: 2
EXTT0=
EXTT1=
EXTT2=
EXTT3=
EXTT4=
EXTT5=
EXTT6=
EXTT7=
EXTT8=
EXTT9=
EXTT10=
EXTT11=
EXTT12=
EXTT13=
EXTT14=
EXTT15=
EXTT16=
EXTT17=
EXTT18=
EXTT19=
PLAYORDER=
